HIERARCHY
ROOT Hips
{
	OFFSET 0.000000 0.000000 0.000000
	CHANNELS 6 Xposition Yposition Zposition Xrotation Yrotation Zrotation
	JOINT LeftUpLeg_virtual
	{
		OFFSET 0.000000 0.000000 0.000000
		CHANNELS 3 Xrotation Yrotation Zrotation
		JOINT LeftUpLeg
		{
			OFFSET 10.205400 -3.823500 0.155100
			CHANNELS 3 Xrotation Yrotation Zrotation
			JOINT LeftLeg
			{
				OFFSET 0.708757 -12.982077 0.567790
				CHANNELS 3 Xrotation Yrotation Zrotation
				JOINT LeftFoot
				{
					OFFSET -0.708756 -10.717838 -2.184338
					CHANNELS 3 Xrotation Yrotation Zrotation
					JOINT LeftToeBase
					{
						OFFSET 0.108149 -7.191104 7.560241
						CHANNELS 3 Xrotation Yrotation Zrotation
						JOINT LeftToe_End
						{
							OFFSET 0.070230 0.081724 4.490308
							CHANNELS 3 Xrotation Yrotation Zrotation
							End Site
							{
								OFFSET 0 0 0
							}
						}
					}
				}
			}
		}
	}
	JOINT RightUpLeg_virtual
	{
		OFFSET 0.000000 0.000000 0.000000
		CHANNELS 3 Xrotation Yrotation Zrotation
		JOINT RightUpLeg
		{
			OFFSET -10.205400 -3.823500 0.005500
			CHANNELS 3 Xrotation Yrotation Zrotation
			JOINT RightLeg
			{
				OFFSET -0.708756 -12.982134 0.610632
				CHANNELS 3 Xrotation Yrotation Zrotation
				JOINT RightFoot
				{
					OFFSET 0.708754 -10.717769 -1.945823
					CHANNELS 3 Xrotation Yrotation Zrotation
					JOINT RightToeBase
					{
						OFFSET -0.108140 -7.191069 7.372968
						CHANNELS 3 Xrotation Yrotation Zrotation
						JOINT RightToe_End
						{
							OFFSET -0.070227 0.081735 4.479403
							CHANNELS 3 Xrotation Yrotation Zrotation
							End Site
							{
								OFFSET 0 0 0
							}
						}
					}
				}
			}
		}
	}
	JOINT Spine_virtual
	{
		OFFSET 0.000000 0.000000 0.000000
		CHANNELS 3 Xrotation Yrotation Zrotation
		JOINT Spine
		{
			OFFSET 0.000000 6.876099 0.125700
			CHANNELS 3 Xrotation Yrotation Zrotation
			JOINT Spine1
			{
				OFFSET 0.000000 5.730043 0.104720
				CHANNELS 3 Xrotation Yrotation Zrotation
				JOINT Spine1_split
				{
					OFFSET 0.000000 5.730043 0.104720
					CHANNELS 3 Xrotation Yrotation Zrotation
					JOINT Spine2
					{
						OFFSET 0.000000 5.730043 0.104720
						CHANNELS 3 Xrotation Yrotation Zrotation
						JOINT Neck_virtual
						{
							OFFSET 0.000000 0.000000 0.000000
							CHANNELS 3 Xrotation Yrotation Zrotation
							JOINT Neck
							{
								OFFSET 0.000000 10.314075 0.188496
								CHANNELS 3 Xrotation Yrotation Zrotation
								JOINT Head
								{
									OFFSET 0.000000 7.643700 -2.377400
									CHANNELS 3 Xrotation Yrotation Zrotation
									JOINT HeadTop_End
									{
										OFFSET 0.000000 43.788605 -13.619600
										CHANNELS 3 Xrotation Yrotation Zrotation
										End Site
										{
											OFFSET 0 0 0
										}
									}
								}
							}
						}
						JOINT LeftShoulder_virtual
						{
							OFFSET 0.000000 0.000000 0.000000
							CHANNELS 3 Xrotation Yrotation Zrotation
							JOINT LeftShoulder
							{
								OFFSET 2.196100 4.412489 0.087492
								CHANNELS 3 Xrotation Yrotation Zrotation
								JOINT LeftShoulder_split
								{
									OFFSET 2.196100 4.412489 0.087492
									CHANNELS 3 Xrotation Yrotation Zrotation
									JOINT LeftArm
									{
										OFFSET 8.771219 -2.981674 -0.026999
										CHANNELS 3 Xrotation Yrotation Zrotation
										JOINT LeftForeArm
										{
											OFFSET 8.512804 0.000000 -0.000000
											CHANNELS 3 Xrotation Yrotation Zrotation
											JOINT LeftHand
											{
												OFFSET 18.484802 0.000000 -0.000000
												CHANNELS 3 Xrotation Yrotation Zrotation
												End Site
												{
													OFFSET 0 0 0
												}
											}
										}
									}
								}
							}
						}
						JOINT RightShoulder_virtual
						{
							OFFSET 0.000000 0.000000 0.000000
							CHANNELS 3 Xrotation Yrotation Zrotation
							JOINT RightShoulder
							{
								OFFSET -2.196100 4.412496 0.070690
								CHANNELS 3 Xrotation Yrotation Zrotation
								JOINT RightShoulder_split
								{
									OFFSET -2.196100 4.412496 0.070690
									CHANNELS 3 Xrotation Yrotation Zrotation
									JOINT RightArm
									{
										OFFSET -8.771282 -2.981682 -0.094208
										CHANNELS 3 Xrotation Yrotation Zrotation
										JOINT RightForeArm
										{
											OFFSET -8.494598 0.000000 0.000000
											CHANNELS 3 Xrotation Yrotation Zrotation
											JOINT RightHand
											{
												OFFSET -18.483803 0.000000 0.000001
												CHANNELS 3 Xrotation Yrotation Zrotation
												End Site
												{
													OFFSET 0 0 0
												}
											}
										}
									}
								}
							}
						}
					}
				}
			}
		}
	}
}
MOTION
Frames: 8
Frame Time: 0.03333333
0.310612 32.260445 -0.701422 0.000000 0.000000 0.000000 42.897071 -21.405927 6.679070 -84.281570 5.402528 30.210647 85.690399 -10.001639 -7.237087 3.268264 -14.384274 1.005444 2.673481 -2.136352 1.981068 0.000000 0.000000 0.000000 39.947990 -24.473466 8.577970 -41.943509 6.024741 9.844882 52.928478 -0.138719 -9.301117 -20.923526 -6.511784 -14.045963 -34.263173 10.377169 -7.172664 0.000000 0.000000 0.000000 43.980428 -15.602754 6.569110 18.226694 1.861766 -10.353994 -7.733192 1.777348 1.498001 2.137743 -0.286458 0.743312 0.000000 0.000000 0.000000 -9.303356 -1.116560 3.994147 -0.557650 7.642007 -1.899515 -18.756444 12.118926 -7.974196 0.000000 0.000000 0.000000 -9.462385 -0.681734 3.150295 1.959088 -4.208757 11.007352 -1.438276 -8.364575 -4.983487 -66.556751 -3.384979 -22.717839 172.446048 -78.710813 172.689572 0.000000 0.000000 0.000000 -9.751193 -1.379906 4.564729 5.287479 15.247101 0.280648 -4.141902 1.771649 2.511274 -16.395654 0.352534 46.881394 1.039540 67.410497 -4.666555 0.000000 0.000000 0.000000 
-0.325086 32.197414 4.329271 0.000000 0.000000 0.000000 39.688846 -22.377957 6.335336 -85.735581 6.954380 30.600743 74.837768 -7.576773 -8.743315 2.417828 -13.441369 0.790379 1.628221 -2.045190 2.037838 0.000000 0.000000 0.000000 38.766474 -28.777421 10.619553 -37.872094 7.321453 6.692948 53.523391 0.527421 -8.393631 -14.165031 -5.320541 -7.995703 -39.593818 10.305383 -6.702978 0.000000 0.000000 0.000000 43.192583 -16.115381 6.599088 18.036194 3.249241 -10.683599 -7.959630 2.207400 1.536110 0.187638 1.107436 -0.011444 0.000000 0.000000 0.000000 -8.681991 -0.756748 4.143205 -0.699594 7.497252 -1.628624 -18.505216 11.428644 -7.553074 0.000000 0.000000 0.000000 -9.170987 -0.144308 3.451717 1.675166 -2.642440 9.892390 0.604834 -7.124988 -4.372856 -63.204795 -0.595079 -22.325742 162.160685 -79.022051 162.187118 0.000000 0.000000 0.000000 -9.907741 -0.946468 4.289659 5.216474 17.020726 -0.000231 -5.140211 1.911631 0.060813 -19.556288 7.325249 45.695714 5.984571 73.703362 -10.012256 0.000000 0.000000 0.000000 
-0.883226 32.332737 10.366963 0.000000 0.000000 0.000000 36.257168 -22.154422 6.777606 -82.609847 8.599951 27.508580 62.642342 -3.839094 -8.627587 2.850622 -11.247530 0.901823 0.661702 -2.018954 1.969032 0.000000 0.000000 0.000000 37.073987 -29.837214 11.939544 -27.265082 9.813530 1.736918 49.796495 1.555483 -8.112766 -2.254731 -2.710573 3.015689 -41.586286 9.513756 -5.463031 0.000000 0.000000 0.000000 40.031390 -15.578828 6.290126 19.162490 5.778248 -11.850347 -7.602343 2.955988 1.711570 -0.791319 0.589333 0.927851 0.000000 0.000000 0.000000 -7.622570 0.070641 4.377826 -2.141734 6.305598 -0.901038 -18.444552 9.257492 -7.536385 0.000000 0.000000 0.000000 -8.528801 0.842900 3.738375 1.279168 -0.639812 6.918267 1.916003 -5.523891 -2.244438 -57.493479 4.422496 -22.408341 142.282963 -76.414230 142.328752 0.000000 0.000000 0.000000 -9.324237 0.039678 3.968360 5.207495 19.417231 0.216867 -4.965870 0.818210 -2.236326 -22.335738 14.168316 42.903434 18.496304 77.736596 -23.112819 0.000000 0.000000 0.000000 
-1.137908 32.405930 16.278210 0.000000 0.000000 0.000000 32.556537 -20.245178 7.612229 -75.455504 9.835061 21.303386 52.239462 -0.111892 -6.578526 2.550150 -8.250710 1.881060 1.923949 -2.017202 1.578456 0.000000 0.000000 0.000000 35.191641 -27.108382 12.019590 -13.258972 11.580515 -3.997656 44.281377 1.880944 -8.462561 8.942908 1.466089 13.503766 -38.521297 8.199225 -3.727475 0.000000 0.000000 0.000000 34.657923 -13.811268 5.768299 21.861641 8.622491 -13.465639 -6.744185 3.665275 1.944754 1.010298 -1.603665 3.124928 0.000000 0.000000 0.000000 -6.457164 0.941839 4.636027 -4.809972 4.515394 0.150663 -18.478052 6.312505 -7.874928 0.000000 0.000000 0.000000 -7.824468 1.761762 3.809249 1.027662 1.237604 2.563774 3.541176 -3.932277 0.092948 -49.805558 10.504798 -24.487924 130.918662 -70.031466 131.049965 0.000000 0.000000 0.000000 -8.169824 1.052270 3.599131 4.976932 21.643041 1.689477 -4.440630 -0.859626 -3.988570 -23.071498 17.705944 39.022056 33.514758 78.673869 -38.871775 0.000000 0.000000 0.000000 
-1.191941 32.199120 21.806099 0.000000 0.000000 0.000000 28.046106 -16.498786 8.334674 -66.090174 10.365872 13.066048 44.512794 2.183982 -2.995679 -0.155848 -5.788476 2.503547 4.288167 -1.923080 0.921450 0.000000 0.000000 0.000000 32.526262 -21.153764 10.825158 -1.987474 11.624556 -9.200130 43.633157 0.915802 -8.622825 16.071903 4.458856 18.897981 -28.356193 6.653825 -1.106540 0.000000 0.000000 0.000000 28.159492 -10.262697 5.386249 25.942361 10.807236 -14.891995 -5.567496 3.958246 2.002820 2.576440 -2.919362 4.340881 0.000000 0.000000 0.000000 -5.423863 1.293447 4.745545 -8.409145 2.462575 1.312425 -18.386658 3.058349 -8.364590 0.000000 0.000000 0.000000 -7.208104 2.077955 3.511131 0.946861 2.094872 -2.469082 6.265024 -2.058397 2.055605 -40.162752 15.985957 -29.409944 128.593652 -62.099889 128.756224 0.000000 0.000000 0.000000 -6.794665 1.491090 3.154612 4.351791 22.636780 4.790813 -4.948989 -2.249216 -4.880301 -20.978178 16.318905 35.334488 43.227523 78.287669 -49.365476 0.000000 0.000000 0.000000 
-1.033675 31.603815 26.664305 0.000000 0.000000 0.000000 22.985134 -12.773862 9.049772 -55.324905 10.087666 4.244743 39.947041 2.387662 1.111900 -5.654954 -4.771433 2.394737 3.771169 -1.786412 0.442012 0.000000 0.000000 0.000000 28.700735 -13.000294 9.120423 0.964805 10.639264 -13.316174 51.772981 -1.489840 -8.145400 19.066454 4.509989 19.016386 -14.358263 5.468775 2.473238 0.000000 0.000000 0.000000 21.363986 -5.987512 6.131042 30.760969 11.718428 -15.610163 -4.323071 3.438778 1.749032 3.029669 -4.048228 3.656951 0.000000 0.000000 0.000000 -4.736178 0.791901 4.567523 -12.416808 0.497280 2.347766 -17.476967 0.600530 -8.435501 0.000000 0.000000 0.000000 -6.677747 1.486422 2.820688 0.877371 1.584595 -7.173024 9.613230 -0.063573 3.040603 -30.546990 18.547097 -36.488588 131.039023 -54.744724 131.037739 0.000000 0.000000 0.000000 -5.656153 0.968197 2.672102 3.439177 21.397345 9.017778 -6.043844 -3.278906 -4.643128 -15.895068 10.194852 33.298736 46.991848 78.397615 -53.711768 0.000000 0.000000 0.000000 
-0.739641 30.689955 31.238052 0.000000 0.000000 0.000000 17.882603 -8.873389 9.638966 -44.947474 9.204206 -3.685859 39.143397 0.867775 4.958209 -12.291736 -4.442263 -0.964998 -0.102174 -1.490478 0.376298 0.000000 0.000000 0.000000 24.373257 -3.884304 7.750083 -4.896979 9.631342 -16.343502 67.057479 -4.296067 -6.266561 17.996276 2.946476 16.952683 -5.152481 4.374879 5.528081 0.000000 0.000000 0.000000 15.191956 -2.267686 7.330302 35.402622 11.282142 -14.994268 -3.416252 1.950552 1.309479 2.803232 -4.045271 1.778635 0.000000 0.000000 0.000000 -4.290532 -0.631675 4.034877 -16.514501 -1.206222 3.142386 -15.357653 -1.062806 -7.785068 0.000000 0.000000 0.000000 -6.106699 -0.001416 1.989054 0.704920 -0.074577 -10.663459 11.633700 1.981420 1.991571 -22.729338 17.662138 -43.376021 135.925573 -49.123509 135.543205 0.000000 0.000000 0.000000 -4.882371 -0.618911 2.128693 2.336112 17.821905 13.443545 -7.224629 -3.453255 -4.059841 -8.358926 1.460305 34.122754 46.226304 79.505041 -53.375845 0.000000 0.000000 0.000000 
-0.425904 29.790756 35.913265 0.000000 0.000000 0.000000 13.410760 -5.075045 9.944853 -33.878029 8.800834 -10.032657 39.939408 0.494923 7.863219 -20.690769 -3.478558 -4.527183 -4.520003 -1.234234 -0.100800 0.000000 0.000000 0.000000 19.593542 3.977494 7.136718 -17.988507 9.248668 -17.632627 84.250862 -6.062932 -3.597104 14.659778 1.482125 14.613296 -5.693353 2.461556 6.914357 0.000000 0.000000 0.000000 11.148721 0.055477 8.370882 38.693421 9.675149 -12.636822 -3.102351 -0.357107 0.719908 1.601769 -3.190496 0.332987 0.000000 0.000000 0.000000 -4.034150 -2.809862 3.169297 -19.925516 -2.529834 3.568603 -12.021334 -2.381900 -6.329497 0.000000 0.000000 0.000000 -5.481422 -2.154648 1.243351 0.370062 -2.256382 -12.547058 12.317702 3.567670 0.080706 -18.413437 14.323657 -47.675349 142.087606 -45.854007 141.159547 0.000000 0.000000 0.000000 -4.272774 -2.925027 1.568035 1.446665 12.165762 16.673060 -8.101370 -1.963806 -3.552225 1.648677 -6.471061 37.137408 38.646908 81.431387 -46.036482 0.000000 0.000000 0.000000 
